<?xml version="1.0" encoding="UTF-8" standalone="no"?>
<!-- Created with Inkscape (http://www.inkscape.org/) -->

<svg
   xmlns:dc="http://purl.org/dc/elements/1.1/"
   xmlns:cc="http://creativecommons.org/ns#"
   xmlns:rdf="http://www.w3.org/1999/02/22-rdf-syntax-ns#"
   xmlns:svg="http://www.w3.org/2000/svg"
   xmlns="http://www.w3.org/2000/svg"
   xmlns:sodipodi="http://sodipodi.sourceforge.net/DTD/sodipodi-0.dtd"
   xmlns:inkscape="http://www.inkscape.org/namespaces/inkscape"
   width="2125.9841"
   height="1062.9921"
   id="svg2"
   version="1.1"
   inkscape:version="0.48.5 r10040"
   sodipodi:docname="drawing.svg">
  <defs
     id="defs4" />
  <sodipodi:namedview
     id="base"
     pagecolor="#ffffff"
     bordercolor="#666666"
     borderopacity="1.0"
     inkscape:pageopacity="0.0"
     inkscape:pageshadow="2"
     inkscape:zoom="8.6292156"
     inkscape:cx="1156.2465"
     inkscape:cy="855.39491"
     inkscape:document-units="mm"
     inkscape:current-layer="layer1"
     showgrid="false"
     units="mm"
     inkscape:window-width="1440"
     inkscape:window-height="790"
     inkscape:window-x="0"
     inkscape:window-y="0"
     inkscape:window-maximized="1"
     inkscape:snap-center="true" />
  <metadata
     id="metadata7">
    <rdf:RDF>
      <cc:Work
         rdf:about="">
        <dc:format>image/svg+xml</dc:format>
        <dc:type
           rdf:resource="http://purl.org/dc/dcmitype/StillImage" />
        <dc:title />
      </cc:Work>
    </rdf:RDF>
  </metadata>
  <g
     inkscape:label="Layer 1"
     inkscape:groupmode="layer"
     id="layer1"
     transform="translate(0,10.629915)">
    <text
       xml:space="preserve"
       style="font-size:40px;font-style:normal;font-weight:normal;line-height:125%;letter-spacing:0px;word-spacing:0px;fill:#000000;fill-opacity:1;stroke:none;font-family:Sans"
       x="684.15601"
       y="487.32684"
       id="text3829"
       sodipodi:linespacing="125%"
       transform="translate(0,-10.629915)"><tspan
         sodipodi:role="line"
         id="tspan3831"
         x="684.15601"
         y="487.32684">6x</tspan></text>
    <path
       sodipodi:type="arc"
       style="fill:none;stroke:#000000;stroke-width:0.66938466;stroke-linecap:round;stroke-linejoin:miter;stroke-miterlimit:54.56021118;stroke-opacity:1;stroke-dasharray:none;stroke-dashoffset:0"
       id="path3781"
       sodipodi:cx="382.58792"
       sodipodi:cy="742.86749"
       sodipodi:rx="32.347084"
       sodipodi:ry="27.885416"
       d="m 414.93501,742.86749 a 32.347084,27.885416 0 1 1 -64.69417,0 32.347084,27.885416 0 1 1 64.69417,0 z"
       transform="matrix(0.49148144,0,0,0.57011036,1061.6632,-254.39453)" />
    <path
       style="fill:none;stroke:#000000;stroke-width:0.35433072;stroke-linecap:round;stroke-linejoin:miter;stroke-miterlimit:54.56021118;stroke-opacity:1;stroke-dasharray:none;stroke-dashoffset:0"
       d="m 1144.7315,206.14702 c -4.8027,-0.10778 -8.6721,-3.97725 -8.6721,-8.75045 0,-4.77322 3.8694,-8.64266 8.6721,-8.75048 l 18.2495,0 c 4.7329,0.10782 8.6024,3.97726 8.6024,8.75048 0,4.7732 -3.8695,8.64267 -8.6513,8.75045 z"
       id="rect3789"
       inkscape:connector-curvature="0"
       sodipodi:nodetypes="csccscc" />
    <g
       id="g3818">
      <path
         transform="matrix(0.65937513,0,0,0.59343761,358.09555,149.88047)"
         d="m 1045.5792,405.86682 c 0,1.54566 -1.1277,2.79866 -2.5188,2.79866 -1.3911,0 -2.5188,-1.253 -2.5188,-2.79866 0,-1.54566 1.1277,-2.79866 2.5188,-2.79866 1.3911,0 2.5188,1.253 2.5188,2.79866 z"
         sodipodi:ry="2.7986596"
         sodipodi:rx="2.5187936"
         sodipodi:cy="405.86682"
         sodipodi:cx="1043.0604"
         id="path3802"
         style="fill:none;stroke:#000000;stroke-width:0.35433072;stroke-miterlimit:54.56021118;stroke-opacity:1;stroke-dasharray:none;stroke-dashoffset:0"
         sodipodi:type="arc" />
      <path
         sodipodi:type="arc"
         style="fill:none;stroke:#000000;stroke-width:0.35433072;stroke-miterlimit:54.56021118;stroke-opacity:1;stroke-dasharray:none;stroke-dashoffset:0"
         id="path3812"
         sodipodi:cx="1043.0604"
         sodipodi:cy="405.86682"
         sodipodi:rx="2.5187936"
         sodipodi:ry="2.7986596"
         d="m 1045.5792,405.86682 c 0,1.54566 -1.1277,2.79866 -2.5188,2.79866 -1.3911,0 -2.5188,-1.253 -2.5188,-2.79866 0,-1.54566 1.1277,-2.79866 2.5188,-2.79866 1.3911,0 2.5188,1.253 2.5188,2.79866 z"
         transform="matrix(0.65937513,0,0,0.59343761,709.75864,149.88047)" />
      <path
         transform="matrix(0.65937513,0,0,0.59343761,709.75864,-202.00947)"
         d="m 1045.5792,405.86682 c 0,1.54566 -1.1277,2.79866 -2.5188,2.79866 -1.3911,0 -2.5188,-1.253 -2.5188,-2.79866 0,-1.54566 1.1277,-2.79866 2.5188,-2.79866 1.3911,0 2.5188,1.253 2.5188,2.79866 z"
         sodipodi:ry="2.7986596"
         sodipodi:rx="2.5187936"
         sodipodi:cy="405.86682"
         sodipodi:cx="1043.0604"
         id="path3814"
         style="fill:none;stroke:#000000;stroke-width:0.35433072;stroke-miterlimit:54.56021118;stroke-opacity:1;stroke-dasharray:none;stroke-dashoffset:0"
         sodipodi:type="arc" />
      <path
         sodipodi:type="arc"
         style="fill:none;stroke:#000000;stroke-width:0.35433072;stroke-miterlimit:54.56021118;stroke-opacity:1;stroke-dasharray:none;stroke-dashoffset:0"
         id="path3816"
         sodipodi:cx="1043.0604"
         sodipodi:cy="405.86682"
         sodipodi:rx="2.5187936"
         sodipodi:ry="2.7986596"
         d="m 1045.5792,405.86682 c 0,1.54566 -1.1277,2.79866 -2.5188,2.79866 -1.3911,0 -2.5188,-1.253 -2.5188,-2.79866 0,-1.54566 1.1277,-2.79866 2.5188,-2.79866 1.3911,0 2.5188,1.253 2.5188,2.79866 z"
         transform="matrix(0.65937513,0,0,0.59343761,358.08618,-202.00947)" />
    </g>
    <path
       id="path3773"
       d="m 764.84375,27.589115 c -28.32244,0 -55.16325,6.358468 -79.1875,17.6875 L 619.75,45.245365 c -12.75891,0.12814 -23.05695,10.44477 -23.15625,23.1875 l 0.0312,65.874995 c -11.32903,24.02425 -17.6875,50.86506 -17.6875,79.1875 0,28.37206 6.38359,55.25605 17.75,79.3125 l 0.0312,65.59375 c 0.2153,12.80251 10.52966,23.09602 23.28125,23.3125 l 65.65625,0 c 24.02425,11.32903 50.86506,17.65625 79.1875,17.65625 28.34725,0 55.20965,-6.33978 79.25,-17.6875 l 65.625,0 c 12.78223,-0.27425 23.08833,-10.599 23.28135,-23.34375 l 0,-65.5625 c 11.35883,-24.04992 17.71875,-50.91924 17.71875,-79.28125 0,-28.3325 -6.31964,-55.18797 -17.65625,-79.21875 l 0,-65.531245 c -0.11081,-12.84396 -10.41691,-23.14376 -23.28125,-23.375 l -65.625,-0.03125 c -24.05644,-11.366411 -50.94044,-17.75 -79.3125,-17.75 z"
       style="fill:none;stroke:#000000;stroke-width:0.1404226;stroke-linecap:round;stroke-linejoin:miter;stroke-miterlimit:79.84031677;stroke-opacity:1;stroke-dashoffset:0"
       inkscape:connector-curvature="0" />
    <g
       transform="translate(-456.85428,-1.3034819)"
       id="g3847">
      <path
         sodipodi:type="arc"
         style="fill:none;stroke:#000000;stroke-width:0.35433072;stroke-miterlimit:54.56021118;stroke-opacity:1;stroke-dasharray:none;stroke-dashoffset:0"
         id="path3849"
         sodipodi:cx="1043.0604"
         sodipodi:cy="405.86682"
         sodipodi:rx="2.5187936"
         sodipodi:ry="2.7986596"
         d="m 1045.5792,405.86682 c 0,1.54566 -1.1277,2.79866 -2.5188,2.79866 -1.3911,0 -2.5188,-1.253 -2.5188,-2.79866 0,-1.54566 1.1277,-2.79866 2.5188,-2.79866 1.3911,0 2.5188,1.253 2.5188,2.79866 z"
         transform="matrix(0.65937513,0,0,0.59343761,358.09555,149.88047)" />
      <path
         transform="matrix(0.65937513,0,0,0.59343761,709.75864,149.88047)"
         d="m 1045.5792,405.86682 c 0,1.54566 -1.1277,2.79866 -2.5188,2.79866 -1.3911,0 -2.5188,-1.253 -2.5188,-2.79866 0,-1.54566 1.1277,-2.79866 2.5188,-2.79866 1.3911,0 2.5188,1.253 2.5188,2.79866 z"
         sodipodi:ry="2.7986596"
         sodipodi:rx="2.5187936"
         sodipodi:cy="405.86682"
         sodipodi:cx="1043.0604"
         id="path3851"
         style="fill:none;stroke:#000000;stroke-width:0.35433072;stroke-miterlimit:54.56021118;stroke-opacity:1;stroke-dasharray:none;stroke-dashoffset:0"
         sodipodi:type="arc" />
      <path
         sodipodi:type="arc"
         style="fill:none;stroke:#000000;stroke-width:0.35433072;stroke-miterlimit:54.56021118;stroke-opacity:1;stroke-dasharray:none;stroke-dashoffset:0"
         id="path3853"
         sodipodi:cx="1043.0604"
         sodipodi:cy="405.86682"
         sodipodi:rx="2.5187936"
         sodipodi:ry="2.7986596"
         d="m 1045.5792,405.86682 c 0,1.54566 -1.1277,2.79866 -2.5188,2.79866 -1.3911,0 -2.5188,-1.253 -2.5188,-2.79866 0,-1.54566 1.1277,-2.79866 2.5188,-2.79866 1.3911,0 2.5188,1.253 2.5188,2.79866 z"
         transform="matrix(0.65937513,0,0,0.59343761,709.75864,-202.00947)" />
      <path
         transform="matrix(0.65937513,0,0,0.59343761,358.08618,-202.00947)"
         d="m 1045.5792,405.86682 c 0,1.54566 -1.1277,2.79866 -2.5188,2.79866 -1.3911,0 -2.5188,-1.253 -2.5188,-2.79866 0,-1.54566 1.1277,-2.79866 2.5188,-2.79866 1.3911,0 2.5188,1.253 2.5188,2.79866 z"
         sodipodi:ry="2.7986596"
         sodipodi:rx="2.5187936"
         sodipodi:cy="405.86682"
         sodipodi:cx="1043.0604"
         id="path3855"
         style="fill:none;stroke:#000000;stroke-width:0.35433072;stroke-miterlimit:54.56021118;stroke-opacity:1;stroke-dasharray:none;stroke-dashoffset:0"
         sodipodi:type="arc" />
    </g>
    <g
       id="g3878"
       transform="translate(-456.85428,498.69652)">
      <path
         transform="matrix(0.65937513,0,0,0.59343761,358.09555,149.88047)"
         d="m 1045.5792,405.86682 c 0,1.54566 -1.1277,2.79866 -2.5188,2.79866 -1.3911,0 -2.5188,-1.253 -2.5188,-2.79866 0,-1.54566 1.1277,-2.79866 2.5188,-2.79866 1.3911,0 2.5188,1.253 2.5188,2.79866 z"
         sodipodi:ry="2.7986596"
         sodipodi:rx="2.5187936"
         sodipodi:cy="405.86682"
         sodipodi:cx="1043.0604"
         id="path3880"
         style="fill:none;stroke:#000000;stroke-width:0.35433072;stroke-miterlimit:54.56021118;stroke-opacity:1;stroke-dasharray:none;stroke-dashoffset:0"
         sodipodi:type="arc" />
      <path
         sodipodi:type="arc"
         style="fill:none;stroke:#000000;stroke-width:0.35433072;stroke-miterlimit:54.56021118;stroke-opacity:1;stroke-dasharray:none;stroke-dashoffset:0"
         id="path3882"
         sodipodi:cx="1043.0604"
         sodipodi:cy="405.86682"
         sodipodi:rx="2.5187936"
         sodipodi:ry="2.7986596"
         d="m 1045.5792,405.86682 c 0,1.54566 -1.1277,2.79866 -2.5188,2.79866 -1.3911,0 -2.5188,-1.253 -2.5188,-2.79866 0,-1.54566 1.1277,-2.79866 2.5188,-2.79866 1.3911,0 2.5188,1.253 2.5188,2.79866 z"
         transform="matrix(0.65937513,0,0,0.59343761,709.75864,149.88047)" />
      <path
         transform="matrix(0.65937513,0,0,0.59343761,709.75864,-202.00947)"
         d="m 1045.5792,405.86682 c 0,1.54566 -1.1277,2.79866 -2.5188,2.79866 -1.3911,0 -2.5188,-1.253 -2.5188,-2.79866 0,-1.54566 1.1277,-2.79866 2.5188,-2.79866 1.3911,0 2.5188,1.253 2.5188,2.79866 z"
         sodipodi:ry="2.7986596"
         sodipodi:rx="2.5187936"
         sodipodi:cy="405.86682"
         sodipodi:cx="1043.0604"
         id="path3884"
         style="fill:none;stroke:#000000;stroke-width:0.35433072;stroke-miterlimit:54.56021118;stroke-opacity:1;stroke-dasharray:none;stroke-dashoffset:0"
         sodipodi:type="arc" />
      <path
         sodipodi:type="arc"
         style="fill:none;stroke:#000000;stroke-width:0.35433072;stroke-miterlimit:54.56021118;stroke-opacity:1;stroke-dasharray:none;stroke-dashoffset:0"
         id="path3886"
         sodipodi:cx="1043.0604"
         sodipodi:cy="405.86682"
         sodipodi:rx="2.5187936"
         sodipodi:ry="2.7986596"
         d="m 1045.5792,405.86682 c 0,1.54566 -1.1277,2.79866 -2.5188,2.79866 -1.3911,0 -2.5188,-1.253 -2.5188,-2.79866 0,-1.54566 1.1277,-2.79866 2.5188,-2.79866 1.3911,0 2.5188,1.253 2.5188,2.79866 z"
         transform="matrix(0.65937513,0,0,0.59343761,358.08618,-202.00947)" />
    </g>
    <g
       id="g3118"
       transform="translate(15.6965,-32)">
      <g
         id="g3091">
        <path
           sodipodi:type="arc"
           style="fill:none;stroke:#000000;stroke-width:0.41711342;stroke-miterlimit:54.56021118;stroke-opacity:1;stroke-dasharray:none;stroke-dashoffset:0"
           id="path3005"
           sodipodi:cx="1128.3979"
           sodipodi:cy="360.06863"
           sodipodi:rx="3.5621119"
           sodipodi:ry="3.9579022"
           d="m 1131.9601,360.06863 c 0,2.18589 -1.5949,3.95791 -3.5622,3.95791 -1.9673,0 -3.5621,-1.77202 -3.5621,-3.95791 0,-2.18588 1.5948,-3.9579 3.5621,-3.9579 1.9673,0 3.5622,1.77202 3.5622,3.9579 z"
           transform="matrix(0.89543358,0,0,0.8058902,117.55739,60.093852)" />
        <path
           transform="matrix(0.89543358,0,0,0.8058902,117.55739,70.093852)"
           d="m 1131.9601,360.06863 c 0,2.18589 -1.5949,3.95791 -3.5622,3.95791 -1.9673,0 -3.5621,-1.77202 -3.5621,-3.95791 0,-2.18588 1.5948,-3.9579 3.5621,-3.9579 1.9673,0 3.5622,1.77202 3.5622,3.9579 z"
           sodipodi:ry="3.9579022"
           sodipodi:rx="3.5621119"
           sodipodi:cy="360.06863"
           sodipodi:cx="1128.3979"
           id="path3079"
           style="fill:none;stroke:#000000;stroke-width:0.41711342;stroke-miterlimit:54.56021118;stroke-opacity:1;stroke-dasharray:none;stroke-dashoffset:0"
           sodipodi:type="arc"
           inkscape:transform-center-y="10" />
        <path
           inkscape:transform-center-y="4.9999958"
           sodipodi:type="arc"
           style="fill:none;stroke:#000000;stroke-width:0.41711342;stroke-miterlimit:54.56021118;stroke-opacity:1;stroke-dasharray:none;stroke-dashoffset:0"
           id="path3081"
           sodipodi:cx="1128.3979"
           sodipodi:cy="360.06863"
           sodipodi:rx="3.5621119"
           sodipodi:ry="3.9579022"
           d="m 1131.9601,360.06863 c 0,2.18589 -1.5949,3.95791 -3.5622,3.95791 -1.9673,0 -3.5621,-1.77202 -3.5621,-3.95791 0,-2.18588 1.5948,-3.9579 3.5621,-3.9579 1.9673,0 3.5622,1.77202 3.5622,3.9579 z"
           transform="matrix(0.44771679,-0.77546823,0.69792139,0.4029451,380.12075,1085.2185)"
           inkscape:transform-center-x="-8.6602539" />
        <path
           inkscape:transform-center-x="-8.6602886"
           transform="matrix(-0.44771679,-0.77546823,0.69792139,-0.4029451,1390.5262,1365.3943)"
           d="m 1131.9601,360.06863 c 0,2.18589 -1.5949,3.95791 -3.5622,3.95791 -1.9673,0 -3.5621,-1.77202 -3.5621,-3.95791 0,-2.18588 1.5948,-3.9579 3.5621,-3.9579 1.9673,0 3.5622,1.77202 3.5622,3.9579 z"
           sodipodi:ry="3.9579022"
           sodipodi:rx="3.5621119"
           sodipodi:cy="360.06863"
           sodipodi:cx="1128.3979"
           id="path3083"
           style="fill:none;stroke:#000000;stroke-width:0.41711342;stroke-miterlimit:54.56021118;stroke-opacity:1;stroke-dasharray:none;stroke-dashoffset:0"
           sodipodi:type="arc"
           inkscape:transform-center-y="-4.9999877" />
        <path
           inkscape:transform-center-y="-10.000019"
           sodipodi:type="arc"
           style="fill:none;stroke:#000000;stroke-width:0.41711342;stroke-miterlimit:54.56021118;stroke-opacity:1;stroke-dasharray:none;stroke-dashoffset:0"
           id="path3085"
           sodipodi:cx="1128.3979"
           sodipodi:cy="360.06863"
           sodipodi:rx="3.5621119"
           sodipodi:ry="3.9579022"
           d="m 1131.9601,360.06863 c 0,2.18589 -1.5949,3.95791 -3.5622,3.95791 -1.9673,0 -3.5621,-1.77202 -3.5621,-3.95791 0,-2.18588 1.5948,-3.9579 3.5621,-3.9579 1.9673,0 3.5622,1.77202 3.5622,3.9579 z"
           transform="matrix(-0.89543358,0,0,-0.8058902,2138.3683,630.4454)"
           inkscape:transform-center-x="-7.9373344e-05" />
        <path
           inkscape:transform-center-x="8.6602145"
           transform="matrix(-0.44771679,0.77546823,-0.69792139,-0.4029451,1875.8049,-384.67931)"
           d="m 1131.9601,360.06863 c 0,2.18589 -1.5949,3.95791 -3.5622,3.95791 -1.9673,0 -3.5621,-1.77202 -3.5621,-3.95791 0,-2.18588 1.5948,-3.9579 3.5621,-3.9579 1.9673,0 3.5622,1.77202 3.5622,3.9579 z"
           sodipodi:ry="3.9579022"
           sodipodi:rx="3.5621119"
           sodipodi:cy="360.06863"
           sodipodi:cx="1128.3979"
           id="path3087"
           style="fill:none;stroke:#000000;stroke-width:0.41711342;stroke-miterlimit:54.56021118;stroke-opacity:1;stroke-dasharray:none;stroke-dashoffset:0"
           sodipodi:type="arc"
           inkscape:transform-center-y="-5.0000768" />
        <path
           inkscape:transform-center-y="4.9999267"
           sodipodi:type="arc"
           style="fill:none;stroke:#000000;stroke-width:0.41711342;stroke-miterlimit:54.56021118;stroke-opacity:1;stroke-dasharray:none;stroke-dashoffset:0"
           id="path3089"
           sodipodi:cx="1128.3979"
           sodipodi:cy="360.06863"
           sodipodi:rx="3.5621119"
           sodipodi:ry="3.9579022"
           d="m 1131.9601,360.06863 c 0,2.18589 -1.5949,3.95791 -3.5622,3.95791 -1.9673,0 -3.5621,-1.77202 -3.5621,-3.95791 0,-2.18588 1.5948,-3.9579 3.5621,-3.9579 1.9673,0 3.5622,1.77202 3.5622,3.9579 z"
           transform="matrix(0.44771679,0.77546823,-0.69792139,0.4029451,865.3994,-664.85509)"
           inkscape:transform-center-x="8.6602992" />
      </g>
      <g
         transform="translate(156,0)"
         id="g3100">
        <path
           transform="matrix(0.89543358,0,0,0.8058902,117.55739,60.093852)"
           d="m 1131.9601,360.06863 c 0,2.18589 -1.5949,3.95791 -3.5622,3.95791 -1.9673,0 -3.5621,-1.77202 -3.5621,-3.95791 0,-2.18588 1.5948,-3.9579 3.5621,-3.9579 1.9673,0 3.5622,1.77202 3.5622,3.9579 z"
           sodipodi:ry="3.9579022"
           sodipodi:rx="3.5621119"
           sodipodi:cy="360.06863"
           sodipodi:cx="1128.3979"
           id="path3102"
           style="fill:none;stroke:#000000;stroke-width:0.41711342;stroke-miterlimit:54.56021118;stroke-opacity:1;stroke-dasharray:none;stroke-dashoffset:0"
           sodipodi:type="arc" />
        <path
           inkscape:transform-center-y="10"
           sodipodi:type="arc"
           style="fill:none;stroke:#000000;stroke-width:0.41711342;stroke-miterlimit:54.56021118;stroke-opacity:1;stroke-dasharray:none;stroke-dashoffset:0"
           id="path3104"
           sodipodi:cx="1128.3979"
           sodipodi:cy="360.06863"
           sodipodi:rx="3.5621119"
           sodipodi:ry="3.9579022"
           d="m 1131.9601,360.06863 c 0,2.18589 -1.5949,3.95791 -3.5622,3.95791 -1.9673,0 -3.5621,-1.77202 -3.5621,-3.95791 0,-2.18588 1.5948,-3.9579 3.5621,-3.9579 1.9673,0 3.5622,1.77202 3.5622,3.9579 z"
           transform="matrix(0.89543358,0,0,0.8058902,117.55739,70.093852)" />
        <path
           inkscape:transform-center-x="-8.6602539"
           transform="matrix(0.44771679,-0.77546823,0.69792139,0.4029451,380.12075,1085.2185)"
           d="m 1131.9601,360.06863 c 0,2.18589 -1.5949,3.95791 -3.5622,3.95791 -1.9673,0 -3.5621,-1.77202 -3.5621,-3.95791 0,-2.18588 1.5948,-3.9579 3.5621,-3.9579 1.9673,0 3.5622,1.77202 3.5622,3.9579 z"
           sodipodi:ry="3.9579022"
           sodipodi:rx="3.5621119"
           sodipodi:cy="360.06863"
           sodipodi:cx="1128.3979"
           id="path3106"
           style="fill:none;stroke:#000000;stroke-width:0.41711342;stroke-miterlimit:54.56021118;stroke-opacity:1;stroke-dasharray:none;stroke-dashoffset:0"
           sodipodi:type="arc"
           inkscape:transform-center-y="4.9999958" />
        <path
           inkscape:transform-center-y="-4.9999877"
           sodipodi:type="arc"
           style="fill:none;stroke:#000000;stroke-width:0.41711342;stroke-miterlimit:54.56021118;stroke-opacity:1;stroke-dasharray:none;stroke-dashoffset:0"
           id="path3108"
           sodipodi:cx="1128.3979"
           sodipodi:cy="360.06863"
           sodipodi:rx="3.5621119"
           sodipodi:ry="3.9579022"
           d="m 1131.9601,360.06863 c 0,2.18589 -1.5949,3.95791 -3.5622,3.95791 -1.9673,0 -3.5621,-1.77202 -3.5621,-3.95791 0,-2.18588 1.5948,-3.9579 3.5621,-3.9579 1.9673,0 3.5622,1.77202 3.5622,3.9579 z"
           transform="matrix(-0.44771679,-0.77546823,0.69792139,-0.4029451,1390.5262,1365.3943)"
           inkscape:transform-center-x="-8.6602886" />
        <path
           inkscape:transform-center-x="-7.9373344e-05"
           transform="matrix(-0.89543358,0,0,-0.8058902,2138.3683,630.4454)"
           d="m 1131.9601,360.06863 c 0,2.18589 -1.5949,3.95791 -3.5622,3.95791 -1.9673,0 -3.5621,-1.77202 -3.5621,-3.95791 0,-2.18588 1.5948,-3.9579 3.5621,-3.9579 1.9673,0 3.5622,1.77202 3.5622,3.9579 z"
           sodipodi:ry="3.9579022"
           sodipodi:rx="3.5621119"
           sodipodi:cy="360.06863"
           sodipodi:cx="1128.3979"
           id="path3110"
           style="fill:none;stroke:#000000;stroke-width:0.41711342;stroke-miterlimit:54.56021118;stroke-opacity:1;stroke-dasharray:none;stroke-dashoffset:0"
           sodipodi:type="arc"
           inkscape:transform-center-y="-10.000019" />
        <path
           inkscape:transform-center-y="-5.0000768"
           sodipodi:type="arc"
           style="fill:none;stroke:#000000;stroke-width:0.41711342;stroke-miterlimit:54.56021118;stroke-opacity:1;stroke-dasharray:none;stroke-dashoffset:0"
           id="path3112"
           sodipodi:cx="1128.3979"
           sodipodi:cy="360.06863"
           sodipodi:rx="3.5621119"
           sodipodi:ry="3.9579022"
           d="m 1131.9601,360.06863 c 0,2.18589 -1.5949,3.95791 -3.5622,3.95791 -1.9673,0 -3.5621,-1.77202 -3.5621,-3.95791 0,-2.18588 1.5948,-3.9579 3.5621,-3.9579 1.9673,0 3.5622,1.77202 3.5622,3.9579 z"
           transform="matrix(-0.44771679,0.77546823,-0.69792139,-0.4029451,1875.8049,-384.67931)"
           inkscape:transform-center-x="8.6602145" />
        <path
           inkscape:transform-center-x="8.6602992"
           transform="matrix(0.44771679,0.77546823,-0.69792139,0.4029451,865.3994,-664.85509)"
           d="m 1131.9601,360.06863 c 0,2.18589 -1.5949,3.95791 -3.5622,3.95791 -1.9673,0 -3.5621,-1.77202 -3.5621,-3.95791 0,-2.18588 1.5948,-3.9579 3.5621,-3.9579 1.9673,0 3.5622,1.77202 3.5622,3.9579 z"
           sodipodi:ry="3.9579022"
           sodipodi:rx="3.5621119"
           sodipodi:cy="360.06863"
           sodipodi:cx="1128.3979"
           id="path3114"
           style="fill:none;stroke:#000000;stroke-width:0.41711342;stroke-miterlimit:54.56021118;stroke-opacity:1;stroke-dasharray:none;stroke-dashoffset:0"
           sodipodi:type="arc"
           inkscape:transform-center-y="4.9999267" />
      </g>
    </g>
    <rect
       style="fill:none;stroke:#000000;stroke-width:0.17716534;stroke-linecap:round;stroke-linejoin:miter;stroke-miterlimit:79.84031677;stroke-opacity:1;stroke-dasharray:none;stroke-dashoffset:0"
       id="rect3148"
       width="407.48032"
       height="407.48032"
       x="1017.9191"
       y="11.215178"
       ry="29.40406" />
    <g
       id="g3154">
      <path
         transform="matrix(0.82935395,0,0,0.92967903,9.1873308,-70.852944)"
         d="m 574.28572,305.84921 c 0,97.8333 -88.90346,177.14286 -198.57143,177.14286 -109.66797,0 -198.57142,-79.30956 -198.57142,-177.14286 0,-97.83329 88.90345,-177.14285 198.57142,-177.14285 109.66797,0 198.57143,79.30956 198.57143,177.14285 z"
         sodipodi:ry="177.14285"
         sodipodi:rx="198.57143"
         sodipodi:cy="305.84921"
         sodipodi:cx="375.71429"
         id="path2985"
         style="fill:none;stroke:#000000;stroke-width:0.20176336;stroke-linecap:round;stroke-linejoin:miter;stroke-miterlimit:79.84031677;stroke-opacity:1;stroke-dasharray:none;stroke-dashoffset:0"
         sodipodi:type="arc" />
      <rect
         style="fill:none;stroke:#000000;stroke-width:0.17716534;stroke-linecap:round;stroke-linejoin:miter;stroke-miterlimit:79.84031677;stroke-opacity:1;stroke-dasharray:none;stroke-dashoffset:0"
         id="rect3150"
         width="407.48032"
         height="407.48032"
         x="117.04731"
         y="9.748497"
         ry="29.40406" />
    </g>
    <rect
       ry="29.40406"
       y="509.73959"
       x="561.08795"
       height="407.48032"
       width="407.48032"
       id="rect3158"
       style="fill:none;stroke:#000000;stroke-width:0.17716534;stroke-linecap:round;stroke-linejoin:miter;stroke-miterlimit:79.84031677;stroke-opacity:1;stroke-dasharray:none;stroke-dashoffset:0" />
    <rect
       ry="29.40406"
       y="9.7395792"
       x="561.08795"
       height="407.48032"
       width="407.48032"
       id="rect3170"
       style="fill:none;stroke:#000000;stroke-width:0.17716534;stroke-linecap:round;stroke-linejoin:miter;stroke-miterlimit:79.84031677;stroke-opacity:1;stroke-dasharray:none;stroke-dashoffset:0" />
    <rect
       style="fill:none;stroke:#000000;stroke-width:0.17716534;stroke-linecap:round;stroke-linejoin:miter;stroke-miterlimit:79.84031677;stroke-opacity:1;stroke-dasharray:none;stroke-dashoffset:0"
       id="rect3172"
       width="389.76379"
       height="389.76379"
       x="1026.7773"
       y="20.073439"
       ry="20.755812" />
    <rect
       style="fill:none;stroke:#000000;stroke-width:0.17716534;stroke-linecap:round;stroke-linejoin:miter;stroke-miterlimit:79.84031677;stroke-opacity:1;stroke-dasharray:none;stroke-dashoffset:0"
       id="rect3174"
       width="368.50394"
       height="368.50394"
       x="580.57617"
       y="529.22778"
       ry="66.774841" />
    <text
       xml:space="preserve"
       style="font-size:12px;font-style:normal;font-weight:normal;line-height:125%;letter-spacing:0px;word-spacing:0px;fill:#00ff00;fill-opacity:1;stroke:none;font-family:Sans"
       x="1121.2996"
       y="184.96198"
       id="text3176"
       sodipodi:linespacing="125%"><tspan
         sodipodi:role="line"
         id="tspan3178"
         x="1121.2996"
         y="184.96198">ON</tspan></text>
    <text
       xml:space="preserve"
       style="font-size:12px;font-style:normal;font-weight:normal;line-height:125%;letter-spacing:0px;word-spacing:0px;fill:#00ff00;fill-opacity:1;stroke:none;font-family:Sans"
       x="1168.615"
       y="184.96198"
       id="text3180"
       sodipodi:linespacing="125%"><tspan
         sodipodi:role="line"
         id="tspan3182"
         x="1168.615"
         y="184.96198">OFF</tspan></text>
    <path
       style="fill:#00ff00;fill-opacity:1;stroke:#00ff00;stroke-width:0.17716534;stroke-linecap:round;stroke-linejoin:miter;stroke-miterlimit:54.56021118;stroke-opacity:1;stroke-dasharray:none;stroke-dashoffset:0"
       d="m 1249.698,141.75467 c -6.1011,0 -11.573,2.69401 -15.3266,6.92847 l -1.0568,-0.90186 -2.5055,6.71216 6.0622,-3.88404 -0.9876,-0.91381 c 3.4153,-3.76529 8.3366,-6.14757 13.8144,-6.14757 5.2635,0 9.9623,2.25073 13.351,5.74614 l -0.9385,0.82914 3.1226,3.64058 3.1385,-2.74017 -3.0286,-3.5895 -0.8653,0.74457 c -3.7072,-4.01539 -8.9097,-6.42411 -14.7798,-6.42411 z"
       id="path3964"
       inkscape:connector-curvature="0" />
  </g>
</svg>
